<svg xmlns="http://www.w3.org/2000/svg" xmlns:svg="http://www.w3.org/2000/svg" id="svg560" width="103.7" height="120" version="1.1" viewBox="0 0 27.437 31.75"><g id="layer1" transform="translate(-260.62882,-210.65042)"><path id="path420" d="m 288.06611,224.48813 c 0,6.45583 -4.36563,11.85333 -10.29229,13.38791 l -3.43959,4.52438 -3.43958,-4.52438 c -5.90021,-1.53458 -10.26583,-6.93208 -10.26583,-13.38791 0,-7.64646 6.11187,-13.83771 13.73187,-13.83771 7.54063,0 13.70542,6.16479 13.70542,13.83771 z m -20.10834,-3.73063 5.87375,2.8575 c 0.60855,0.3175 1.61396,0.3175 2.24896,0 l 5.87375,-2.8575 c 0.60854,-0.26458 0.60854,-0.76729 0,-1.08479 l -5.87375,-2.8575 c -0.60854,-0.3175 -1.61396,-0.3175 -2.24896,0 l -5.87375,2.8575 c -0.635,0.26458 -0.635,0.74083 0,1.08479 z m 7.32896,5.55625 v 5.63563 c 0,0.71437 0.50271,1.03187 1.11125,0.71437 l 6.11188,-2.8575 c 0.60854,-0.3175 1.11125,-1.13771 1.11125,-1.77271 V 222.345 c 0,-0.71437 -0.50271,-1.03187 -1.11125,-0.71437 l -6.11188,2.91041 c -0.60854,0.3175 -1.11125,1.13771 -1.11125,1.77271 z m -8.33437,3.41313 6.05896,2.96333 c 0.60854,0.26458 1.11125,-0.0529 1.11125,-0.71437 v -5.68855 c 0,-0.71437 -0.50271,-1.4552 -1.11125,-1.7727 l -6.05896,-2.91042 c -0.60854,-0.26458 -1.11125,0.0529 -1.11125,0.71437 v 5.63563 c -0.0265,0.68792 0.47625,1.45521 1.11125,1.77271 z" class="st0" style="fill:#f9a31a;stroke-width:.264583"/></g></svg>